<svg width="44" height="44" viewBox="0 0 44 44" fill="none" xmlns="http://www.w3.org/2000/svg">
<g filter="url(#filter0_b_91_100)">
<g clip-path="url(#clip0_91_100)">
<rect width="44" height="44" rx="22" fill="white" fill-opacity="0.16"/>
<g filter="url(#filter1_d_91_100)">
<path fill-rule="evenodd" clip-rule="evenodd" d="M22 4.88892C12.5498 4.88892 4.88889 12.5498 4.88889 22C4.88889 31.4502 12.5498 39.1111 22 39.1111C31.4502 39.1111 39.1111 31.4502 39.1111 22C39.1111 12.5498 31.4502 4.88892 22 4.88892ZM18.2911 29.3332L28.94 22.9778C29.6681 22.5432 29.6681 21.4568 28.94 21.0223L18.2911 14.6669C17.5629 14.2323 16.6528 14.7755 16.6528 15.6446V28.3554C16.6528 29.2246 17.5629 29.7678 18.2911 29.3332Z" fill="white"/>
</g>
</g>
</g>
<defs>
<filter id="filter0_b_91_100" x="-10" y="-10" width="64" height="64" filterUnits="userSpaceOnUse" color-interpolation-filters="sRGB">
<feFlood flood-opacity="0" result="BackgroundImageFix"/>
<feGaussianBlur in="BackgroundImageFix" stdDeviation="5"/>
<feComposite in2="SourceAlpha" operator="in" result="effect1_backgroundBlur_91_100"/>
<feBlend mode="normal" in="SourceGraphic" in2="effect1_backgroundBlur_91_100" result="shape"/>
</filter>
<filter id="filter1_d_91_100" x="-3.11111" y="-1.11108" width="50.2222" height="50.2222" filterUnits="userSpaceOnUse" color-interpolation-filters="sRGB">
<feFlood flood-opacity="0" result="BackgroundImageFix"/>
<feColorMatrix in="SourceAlpha" type="matrix" values="0 0 0 0 0 0 0 0 0 0 0 0 0 0 0 0 0 0 127 0" result="hardAlpha"/>
<feOffset dy="2"/>
<feGaussianBlur stdDeviation="4"/>
<feComposite in2="hardAlpha" operator="out"/>
<feColorMatrix type="matrix" values="0 0 0 0 0 0 0 0 0 0 0 0 0 0 0 0 0 0 0.04 0"/>
<feBlend mode="normal" in2="BackgroundImageFix" result="effect1_dropShadow_91_100"/>
<feBlend mode="normal" in="SourceGraphic" in2="effect1_dropShadow_91_100" result="shape"/>
</filter>
<clipPath id="clip0_91_100">
<rect width="44" height="44" rx="22" fill="white"/>
</clipPath>
</defs>
</svg>
